HIERARCHY
ROOT root
{
	OFFSET 0.000000 0.000000 0.000000
	CHANNELS 6 Xposition Yposition Zposition Zrotation Yrotation Xrotation
	JOINT lhip
	{
		OFFSET 0.058581 -0.082280 -0.017664
		CHANNELS 3 Zrotation Yrotation Xrotation
		JOINT lknee
		{
			OFFSET 0.043451 -0.386469 0.008037
			CHANNELS 3 Zrotation Yrotation Xrotation
			JOINT lankle
			{
				OFFSET -0.014790 -0.426874 -0.037428
				CHANNELS 3 Zrotation Yrotation Xrotation
				JOINT ltoe
				{
					OFFSET 0.041054 -0.060286 0.122042
					CHANNELS 3 Zrotation Yrotation Xrotation
					End Site
					{
						OFFSET 0.000000 0.000000 0.000000
					}
				}
			}
		}
	}
	JOINT rhip
	{
		OFFSET -0.060310 -0.090513 -0.013543
		CHANNELS 3 Zrotation Yrotation Xrotation
		JOINT rknee
		{
			OFFSET -0.043257 -0.383688 -0.004843
			CHANNELS 3 Zrotation Yrotation Xrotation
			JOINT rankle
			{
				OFFSET 0.019056 -0.420046 -0.034562
				CHANNELS 3 Zrotation Yrotation Xrotation
				JOINT rtoe
				{
					OFFSET -0.034840 -0.062106 0.130323
					CHANNELS 3 Zrotation Yrotation Xrotation
					End Site
					{
						OFFSET 0.000000 0.000000 0.000000
					}
				}
			}
		}
	}
	JOINT lowerback
	{
		OFFSET 0.004439 0.124404 -0.038385
		CHANNELS 3 Zrotation Yrotation Xrotation
		JOINT upperback
		{
			OFFSET 0.004488 0.137956 0.026820
			CHANNELS 3 Zrotation Yrotation Xrotation
			JOINT chest
			{
				OFFSET -0.002265 0.056032 0.002855
				CHANNELS 3 Zrotation Yrotation Xrotation
				JOINT lowerneck
				{
					OFFSET -0.013390 0.211636 -0.033468
					CHANNELS 3 Zrotation Yrotation Xrotation
					JOINT upperneck
					{
						OFFSET 0.010113 0.088937 0.050410
						CHANNELS 3 Zrotation Yrotation Xrotation
						End Site
						{
							OFFSET 0.000000 0.000000 0.000000
						}
					}
				}
				JOINT lclavicle
				{
					OFFSET 0.071702 0.114000 -0.018898
					CHANNELS 3 Zrotation Yrotation Xrotation
					JOINT lshoulder
					{
						OFFSET 0.122921 0.045205 -0.019046
						CHANNELS 3 Zrotation Yrotation Xrotation
						JOINT lelbow
						{
							OFFSET 0.255332 -0.015649 -0.022946
							CHANNELS 3 Zrotation Yrotation Xrotation
							JOINT lwrist
							{
								OFFSET 0.265709 0.012698 -0.007375
								CHANNELS 3 Zrotation Yrotation Xrotation
								End Site
								{
									OFFSET 0.000000 0.000000 0.000000
								}
							}
						}
					}
				}
				JOINT rclavicle
				{
					OFFSET -0.082954 0.112472 -0.023707
					CHANNELS 3 Zrotation Yrotation Xrotation
					JOINT rshoulder
					{
						OFFSET -0.113228 0.046853 -0.008472
						CHANNELS 3 Zrotation Yrotation Xrotation
						JOINT relbow
						{
							OFFSET -0.260127 -0.014369 -0.031269
							CHANNELS 3 Zrotation Yrotation Xrotation
							JOINT rwrist
							{
								OFFSET -0.269108 0.006794 -0.006027
								CHANNELS 3 Zrotation Yrotation Xrotation
								End Site
								{
									OFFSET 0.000000 0.000000 0.000000
								}
							}
						}
					}
				}
			}
		}
	}
}
MOTION
Frames: 15
Frame Time: 0.033333
-0.106077 0.275449 0.946294 96.840186 6.507789 81.792013 4.370061 -2.638285 -10.398085 -17.633733 -17.697264 44.824996 4.193869 11.425300 -31.144497 0.000000 -0.000000 0.000000 -7.021952 2.722369 -2.257972 5.920780 16.720835 35.942388 6.711784 -4.597687 -22.056881 0.000000 -0.000000 0.000000 -2.868308 4.108621 11.341529 10.908029 -5.031929 -1.704751 3.735721 1.733914 2.571495 7.282701 -15.002644 -12.765395 4.163581 -36.424008 5.878749 2.907868 -7.664884 -11.728430 12.651782 -12.619730 -12.379913 84.472176 -61.892860 -81.011269 47.730702 -24.956585 -8.469432 19.415537 18.374003 -8.714568 28.475459 21.296642 18.084547 88.231110 87.725935 100.542271 -8.284254 17.323182 -24.702809 
-0.100239 0.266058 0.947546 96.627377 8.197032 81.820845 6.473465 -2.450791 -10.496978 -17.968256 -18.433973 46.195521 3.391876 11.937669 -32.108950 0.000000 -0.000000 0.000000 -6.860696 1.584132 0.149592 7.275641 18.742904 31.425740 9.008180 -0.880436 -20.935128 0.000000 -0.000000 0.000000 -2.631780 4.963852 10.711976 11.751453 -5.256650 -0.758884 4.427756 1.958463 1.646848 7.892935 -17.130365 -12.104895 5.569031 -37.856721 4.198138 3.263276 -7.556881 -11.252849 13.501025 -11.444032 -13.060504 86.020797 -61.202986 -83.141414 49.066235 -24.493796 -8.806859 18.987359 18.741452 -7.919715 25.728768 20.279189 16.139680 94.704294 86.253685 107.221311 -8.182484 17.915916 -24.482629 
-0.093730 0.255868 0.949747 96.782405 9.676691 81.661322 8.211912 -2.285698 -10.346046 -18.100170 -19.338142 47.648875 2.906242 12.173150 -32.516744 0.000000 -0.000000 0.000000 -6.669142 0.288958 2.801608 8.296579 18.228348 27.251444 9.320714 1.299237 -20.014381 0.000000 -0.000000 0.000000 -2.383392 5.458091 11.115703 12.252983 -5.344356 -1.174791 5.085901 1.886452 1.357601 8.346362 -18.435008 -11.613751 6.527014 -38.965008 3.312308 3.714884 -6.870092 -11.732359 14.047842 -11.182904 -13.543872 86.178434 -60.818939 -84.029896 49.433741 -24.068565 -9.042791 18.349847 18.405567 -8.486445 24.329322 19.879033 15.501811 95.455492 84.703430 107.826944 -8.501400 17.933957 -24.189438 
-0.088605 0.245371 0.951760 97.262308 11.435452 81.412808 10.181525 -1.852937 -10.736805 -18.229451 -20.128754 49.642808 1.733495 11.943462 -31.892594 0.000000 -0.000000 0.000000 -5.586785 -1.354469 5.129363 9.020615 16.339227 23.832361 9.612288 1.733213 -18.602164 0.000000 -0.000000 0.000000 -1.833322 5.685103 11.410037 12.844087 -5.556679 -0.931880 5.772856 1.718999 1.000018 8.495720 -19.342463 -11.549741 7.388048 -39.074522 2.646446 4.218237 -6.624516 -11.942308 14.135716 -10.615998 -13.989802 85.998152 -59.818932 -84.370221 49.772298 -22.650273 -10.078606 17.463823 18.447593 -8.817296 22.653472 19.636513 14.303417 96.189310 83.694685 108.735000 -8.454311 17.695823 -24.591470 
-0.083849 0.235112 0.954930 97.777925 13.015923 81.170770 12.016144 -1.448579 -11.168432 -18.196099 -21.077189 51.628596 0.050225 10.900942 -30.702610 0.000000 -0.000000 0.000000 -4.069345 -2.870190 7.622239 8.867732 15.599316 20.209254 9.512863 2.068726 -17.084719 0.000000 -0.000000 0.000000 -1.370516 5.800685 12.266102 13.344951 -5.993699 -0.960298 6.364243 1.651470 -0.053221 8.551841 -20.287941 -10.654057 8.301491 -38.526372 2.045078 4.461220 -6.856344 -11.663767 14.347806 -9.582171 -14.493663 85.866795 -59.108370 -84.520302 49.841698 -21.336091 -10.803312 16.611311 18.614914 -8.851391 21.779564 19.238956 13.153796 95.143069 82.743438 108.097866 -8.798879 17.657827 -24.850497 
-0.080083 0.225667 0.958429 98.162707 14.073646 80.995910 13.202476 -1.427424 -11.354870 -18.757104 -22.596646 53.137448 -0.472562 10.897918 -29.409408 0.000000 -0.000000 0.000000 -2.976309 -3.335568 9.506671 9.195453 16.546057 17.457124 9.434028 1.998479 -14.966027 0.000000 -0.000000 0.000000 -1.466103 5.973872 12.482670 13.790323 -6.173322 -0.775344 6.920833 1.378124 -0.473795 8.743863 -21.360081 -10.406500 8.499592 -37.916597 1.924892 4.599187 -7.029306 -11.582991 14.514287 -9.306116 -15.026289 85.114201 -58.570858 -84.349210 50.330674 -20.157343 -11.226882 15.889616 18.764370 -9.043649 21.231773 19.078810 12.630090 93.444454 82.538686 105.994920 -9.510694 17.263750 -25.229314 
-0.077534 0.218200 0.960589 98.452386 14.781920 81.505325 13.879951 -1.955266 -12.094327 -18.532697 -23.219608 53.961032 -0.696615 10.789244 -28.193491 0.000000 -0.000000 0.000000 -2.644399 -3.333155 10.045504 9.849160 16.788040 15.351325 10.084806 2.925446 -12.838376 0.000000 -0.000000 0.000000 -1.452093 5.948755 12.114552 14.029775 -6.360118 -1.063510 7.062339 1.202623 -0.609800 8.620099 -21.647925 -9.972105 8.399983 -37.835077 2.484977 4.677447 -6.955950 -11.398417 14.176907 -9.777917 -15.498773 83.952963 -57.818868 -83.346663 50.879387 -19.979509 -11.391956 15.449932 18.595838 -8.907205 21.223651 19.469039 12.181230 90.119492 82.498798 102.818995 -10.146611 17.154283 -25.888943 
-0.076028 0.213012 0.961872 98.005441 15.365707 81.724139 14.518712 -2.051629 -12.579908 -17.973093 -23.002275 54.437187 -0.897827 10.547280 -27.306942 0.000000 -0.000000 0.000000 -2.526072 -3.587259 10.228597 10.297897 17.285689 14.133542 10.294821 4.025060 -11.225822 0.000000 -0.000000 0.000000 -1.002980 6.109994 11.401214 14.036754 -6.478074 -0.255374 6.979534 1.294551 -0.945900 8.423681 -21.467732 -9.684911 8.627649 -37.573913 1.981061 4.612240 -7.201302 -11.468292 13.670994 -10.037907 -15.708749 82.927824 -57.297617 -82.862376 50.203964 -19.869990 -11.099703 15.274477 18.744008 -8.689863 20.919043 19.549603 11.629374 90.719057 82.885196 103.399086 -10.324005 17.088537 -25.961837 
-0.074993 0.210046 0.962314 97.546385 15.535718 81.874813 14.786809 -2.124679 -12.406872 -17.445819 -22.722931 53.960613 -1.202604 10.614694 -27.615151 0.000000 -0.000000 0.000000 -2.564899 -3.462698 10.292106 10.531717 16.899988 13.349118 10.648156 4.458251 -10.558924 0.000000 -0.000000 0.000000 -0.861922 6.195182 11.209356 14.001524 -6.341479 -0.056409 7.028279 1.180746 -1.266072 7.998258 -21.448273 -9.850849 7.953901 -37.552950 2.579328 4.452596 -7.543252 -11.525758 12.763711 -10.476067 -15.554317 81.925450 -56.616088 -82.326803 50.164826 -19.829516 -10.959813 14.882763 18.921359 -8.738742 21.137007 19.695370 11.636100 91.680881 83.182129 103.829980 -10.256369 17.337829 -26.065492 
-0.075001 0.209686 0.962079 96.595748 15.188628 82.017056 14.744349 -1.809750 -11.566890 -17.198559 -22.371872 52.459704 -0.810023 11.204735 -29.324427 0.000000 -0.000000 0.000000 -2.814002 -3.376614 9.612474 10.425977 16.778657 13.671398 10.916057 4.509492 -10.870454 0.000000 -0.000000 0.000000 -0.818197 5.985282 11.462449 13.576278 -5.940692 -0.810529 6.904538 1.129580 -0.915847 7.908598 -20.962320 -10.321506 6.741656 -36.899524 3.753154 4.169861 -7.330802 -11.692672 11.984492 -11.233250 -15.752015 80.581732 -56.841475 -80.927824 50.701233 -19.398651 -11.083809 14.970937 18.778159 -8.864619 22.172981 20.413806 12.109178 88.698735 83.332776 101.166514 -10.652389 17.482028 -26.061696 
-0.075304 0.212616 0.959804 96.277772 14.541311 82.306502 14.081732 -1.733446 -10.786585 -16.804382 -22.135063 50.899310 0.108064 11.844287 -31.307594 0.000000 -0.000000 0.000000 -3.156662 -2.776923 8.795646 10.223965 16.450303 14.541245 10.733075 3.771817 -12.739340 0.000000 -0.000000 0.000000 -0.840727 5.544911 11.218607 13.152129 -5.946407 -0.706470 6.573484 0.954824 -0.797471 7.666222 -20.093741 -10.833389 5.657063 -36.395416 4.826933 3.737523 -7.344385 -12.127395 11.156382 -12.246405 -15.794716 79.002795 -56.827659 -79.398711 50.379743 -19.671223 -11.294683 15.188136 18.824958 -8.826222 22.824100 21.129323 12.819437 87.662454 83.920846 100.267379 -11.048466 17.110098 -25.462859 
-0.076937 0.218433 0.956299 95.921375 13.610969 82.488893 12.978951 -1.588259 -10.273706 -16.341320 -21.315375 49.466229 0.725295 12.109012 -32.957061 0.000000 -0.000000 0.000000 -3.539989 -2.124901 7.605495 9.463586 16.247111 16.174407 10.178182 2.697860 -15.059985 0.000000 -0.000000 0.000000 -0.639786 5.201726 11.303994 12.473457 -5.638232 -0.956603 6.112013 0.550217 -0.351271 7.305862 -19.106507 -11.700026 4.148470 -35.370553 6.114615 3.282933 -7.951161 -11.803221 10.253171 -12.885398 -15.961727 77.698721 -56.265353 -77.891992 49.999670 -20.038306 -10.809829 15.052070 18.824718 -8.913837 23.684656 21.692964 13.336281 86.982756 84.405122 99.528898 -11.113352 17.249689 -25.438776 
-0.079274 0.226977 0.951830 95.682197 12.221260 82.989372 11.296975 -1.762151 -10.313356 -15.691686 -19.641803 47.910596 2.452293 12.573695 -34.290690 0.000000 -0.000000 0.000000 -4.062388 -1.002360 5.562598 8.626426 16.133369 18.809496 9.367431 0.656929 -18.550112 0.000000 -0.000000 0.000000 -0.351340 4.565110 11.093300 11.567780 -5.584479 -1.087772 5.352253 0.232385 0.201078 6.454693 -17.231482 -12.748163 2.354578 -33.434348 7.899842 2.180346 -8.261957 -12.728516 9.348466 -14.231603 -15.501268 76.161139 -56.094694 -76.257370 50.421420 -20.601626 -9.547064 15.367639 18.948969 -9.392871 24.506569 22.531728 14.912322 83.809337 85.206376 96.046595 -11.564883 17.168613 -24.319160 
-0.082297 0.237731 0.947172 95.303005 10.177688 83.465294 8.866601 -2.430337 -9.900212 -15.238651 -18.175030 45.732214 4.187859 13.100655 -35.155902 0.000000 -0.000000 0.000000 -5.251240 0.343796 2.585729 7.833606 15.499684 23.158365 8.430424 -1.821218 -21.661319 0.000000 -0.000000 0.000000 -0.231630 3.842508 10.626054 10.328693 -5.382925 -1.011141 4.149826 0.170076 0.968485 5.728345 -14.379563 -13.942549 0.155431 -30.461370 10.003065 0.806761 -9.304158 -12.678036 8.726029 -15.332862 -15.335143 75.311573 -55.332392 -75.142579 50.574970 -22.168794 -8.565111 15.953181 19.485995 -9.812666 25.343141 23.088485 16.243846 65.811440 86.798738 78.167449 -9.623237 18.316106 -22.433202 
-0.086273 0.249842 0.943830 94.767043 7.333535 84.078344 5.737729 -2.570746 -10.602692 -15.360326 -16.288769 44.724270 5.032708 12.768397 -34.506252 0.000000 -0.000000 0.000000 -7.013939 1.188367 -1.680151 6.600733 14.824922 29.559164 7.772320 -4.015221 -23.814603 0.000000 -0.000000 0.000000 -0.580411 3.179443 10.578261 8.693659 -5.052878 -1.932966 2.945070 -0.020827 2.193511 4.549114 -10.124919 -14.800453 -1.145727 -26.237869 11.566604 -1.015372 -10.254311 -12.968510 8.214398 -16.394389 -14.614420 74.856772 -55.021209 -74.096438 50.815675 -23.292071 -8.014355 16.971935 19.617201 -9.786581 25.764359 24.524634 17.610671 55.017012 86.787234 66.596647 -9.930180 17.385951 -23.799960 
